<?xml version="1.0" encoding="UTF-8"?><svg xmlns="http://www.w3.org/2000/svg" xmlns:ev="http://www.w3.org/2001/xml-events" xmlns:v="http://schemas.microsoft.com/visio/2003/SVGExtensions/" xmlns:xlink="http://www.w3.org/1999/xlink" width="9.89819in" height="3.64753in" viewBox="0 0 712.669 262.622" xml:space="preserve" color-interpolation-filters="sRGB" class="st31" preserveAspectRatio="xMidYMid meet" zoomAndPan="magnify" version="1.1" contentScriptType="text/ecmascript" contentStyleType="text/css"><v:documentProperties v:langID="1033" v:metric="true" v:viewMarkup="false"/><style type="text/css" xml:space="preserve"><![CDATA[
		.st1 {fill:#ffffff;stroke:none;stroke-width:0.5}
		.st2 {fill:#ffffff;stroke:#000000;stroke-width:0.5}
		.st3 {fill:#ffffff;stroke:#000000;stroke-dasharray:3.5,2.5;stroke-width:0.5}
		.st4 {fill:none;stroke:none;stroke-linecap:round;stroke-linejoin:round;stroke-width:0.75}
		.st5 {fill:#000000;font-family:Source Sans Pro;font-size:0.75em}
		.st6 {font-size:1em}
		.st7 {marker-end:url(#mrkr4-27);stroke:#000000;stroke-width:0.5}
		.st8 {fill:#000000;fill-opacity:1;stroke:#000000;stroke-opacity:1;stroke-width:0.21739130434783}
		.st9 {fill:none;stroke:#000000;stroke-width:0.75}
		.st10 {fill:#ffffff;stroke:none;stroke-linecap:butt;stroke-width:7.2}
		.st11 {stroke:#000000;stroke-width:0.75}
		.st12 {stroke:#000000;stroke-width:0.5}
		.st13 {marker-end:url(#mrkr4-57);stroke:#000000;stroke-width:1}
		.st14 {fill:#000000;fill-opacity:1;stroke:#000000;stroke-opacity:1;stroke-width:0.35714285714286}
		.st15 {fill:#ffffff;stroke:#000000;stroke-linecap:butt;stroke-width:0.5}
		.st16 {stroke:#000000;stroke-linecap:butt;stroke-width:0.5}
		.st17 {fill:none;stroke:#000000;stroke-linecap:round;stroke-linejoin:round;stroke-width:0.75}
		.st18 {fill:#ffffff;stroke:#000000;stroke-width:0.75}
		.st19 {fill:#000000;font-family:Source Sans Pro;font-size:0.833336em}
		.st20 {fill:none;marker-end:url(#mrkr5-190);stroke:none;stroke-linecap:round;stroke-linejoin:round;stroke-width:0.75}
		.st21 {fill:#000000;fill-opacity:1;stroke:#000000;stroke-opacity:1;stroke-width:0.22935779816514}
		.st22 {fill:#000000;font-family:Source Sans Pro;font-size:0.833336em;font-weight:bold}
		.st23 {marker-end:url(#mrkr4-209);stroke:#000000;stroke-width:0.5}
		.st24 {fill:#000000;fill-opacity:1;stroke:#000000;stroke-opacity:1;stroke-width:0.16556291390728}
		.st25 {fill:none;stroke:none;stroke-width:0.5}
		.st26 {stroke:#000000;stroke-dasharray:0.01,3.75;stroke-width:0.75}
		.st27 {stroke:#000000;stroke-dasharray:0.01,2.5;stroke-width:0.5}
		.st28 {marker-start:url(#mrkr4-267);stroke:#000000;stroke-width:0.5}
		.st29 {fill:#000000;font-family:Source Sans Pro;font-size:0.666664em}
		.st30 {fill:#000000;font-family:Source Sans Pro;font-size:0.499992em}
		.st31 {fill:none;fill-rule:evenodd;font-size:12px;overflow:visible;stroke-linecap:square;stroke-miterlimit:3}
		]]></style><defs id="Markers"><g id="lend4"><path d="M 2 1 L 0 0 L 2 -1 L 2 1 " style="stroke:none"/></g><marker id="mrkr4-27" class="st8" v:arrowType="4" v:arrowSize="1" v:setback="9.2" refX="-9.2" orient="auto" markerUnits="strokeWidth" overflow="visible" preserveAspectRatio="xMidYMid meet"><use xlink:href="#lend4" transform="scale(-4.6,-4.6) " xlink:type="simple" xlink:show="embed" xlink:actuate="onLoad"/></marker><marker id="mrkr4-57" class="st14" v:arrowType="4" v:arrowSize="1" v:setback="5.6" refX="-5.6" orient="auto" markerUnits="strokeWidth" overflow="visible" preserveAspectRatio="xMidYMid meet"><use xlink:href="#lend4" transform="scale(-2.8,-2.8) " xlink:type="simple" xlink:show="embed" xlink:actuate="onLoad"/></marker><g id="lend5"><path d="M 2 1 L 0 0 L 1.98117 -0.993387 C 1.67173 -0.364515 1.67301 0.372641 1.98465 1.00043 " style="stroke:none"/></g><marker id="mrkr5-190" class="st21" v:arrowType="5" v:arrowSize="2" v:setback="7.63" refX="-7.63" orient="auto" markerUnits="strokeWidth" overflow="visible" preserveAspectRatio="xMidYMid meet"><use xlink:href="#lend5" transform="scale(-4.36,-4.36) " xlink:type="simple" xlink:show="embed" xlink:actuate="onLoad"/></marker><marker id="mrkr4-209" class="st24" v:arrowType="4" v:arrowSize="2" v:setback="12.08" refX="-12.08" orient="auto" markerUnits="strokeWidth" overflow="visible" preserveAspectRatio="xMidYMid meet"><use xlink:href="#lend4" transform="scale(-6.04,-6.04) " xlink:type="simple" xlink:show="embed" xlink:actuate="onLoad"/></marker><marker id="mrkr4-267" class="st24" v:arrowType="4" v:arrowSize="2" v:setback="11.36" refX="11.36" orient="auto" markerUnits="strokeWidth" overflow="visible" preserveAspectRatio="xMidYMid meet"><use xlink:href="#lend4" transform="scale(6.04) " xlink:type="simple" xlink:show="embed" xlink:actuate="onLoad"/></marker></defs><g v:mID="0" v:index="1" v:groupContext="foregroundPage"><title>Page-1</title><v:pageProperties v:drawingScale="0.0393701" v:pageScale="0.0393701" v:drawingUnits="24" v:shadowOffsetX="8.50394" v:shadowOffsetY="-8.50394"/><v:layer v:name="Connector" v:index="0"/><g id="group454-1" transform="translate(0.375,-0.5)" v:mID="454" v:groupContext="group"><title>Sheet.454</title><g id="shape446-2" v:mID="446" v:groupContext="shape" transform="translate(3.19191,0)"><title>Sheet.446</title><rect x="0" y="0.999999" width="708.603" height="261.622" class="st1"/></g><g id="shape403-4" v:mID="403" v:groupContext="shape" transform="translate(50.3985,-75.8857)"><title>Sheet.403</title><rect x="0" y="91.2853" width="358.393" height="171.337" class="st2"/></g><g id="shape402-6" v:mID="402" v:groupContext="shape" transform="translate(44.2307,-87.0941)"><title>Sheet.402</title><path d="M0 262.62 L82.51 262.62 L82.51 220.25 L0 220.25 L0 262.62 Z" class="st3"/></g><g id="shape401-8" v:mID="401" v:groupContext="shape" transform="translate(44.9146,-140.145)"><title>Sheet.401</title><path d="M0 262.62 L81.5 262.62 L81.5 220.25 L0 220.25 L0 262.62 Z" class="st3"/></g><g id="shape400-10" v:mID="400" v:groupContext="shape" transform="translate(44.9146,-190.794)"><title>Sheet.400</title><path d="M0 262.62 L80.72 262.62 L80.72 220.25 L0 220.25 L0 262.62 Z" class="st3"/></g><g id="shape72-12" v:mID="72" v:groupContext="shape" transform="translate(0.797981,-224.345)"><title>Sheet.72</title><desc>AN_A0(+)</desc><v:textBlock v:margins="rect(4,4,4,4)" v:tabSpace="42.5197"/><v:textRect cx="23.6924" cy="259.202" width="47.39" height="6.83979"/><rect x="0" y="255.782" width="47.3847" height="6.83979" class="st4"/><text x="4" y="261.9" class="st5" v:langID="1033"><v:paragraph/><v:tabList/>AN_A0(+)</text></g><g id="shape73-15" v:mID="73" v:groupContext="shape" transform="translate(0.489285,-196.773)"><title>Sheet.73</title><desc>AN_A1(-)</desc><v:textBlock v:margins="rect(4,4,4,4)" v:tabSpace="42.5197"/><v:textRect cx="24.8323" cy="259.202" width="49.67" height="6.83979"/><rect x="0" y="255.782" width="49.6646" height="6.83979" class="st4"/><text x="4" y="261.9" class="st5" v:langID="1033"><v:paragraph/><v:tabList/>AN_A1(-)</text></g><g id="shape164-18" v:mID="164" v:groupContext="shape" transform="translate(140.456,-217.013)"><title>Sheet.164</title><desc>Sampler 0</desc><v:textBlock v:margins="rect(4,4,4,4)" v:tabSpace="42.5197"/><v:textRect cx="27.0172" cy="253.271" width="54.04" height="18.7015"/><rect x="0" y="243.921" width="54.0344" height="18.7015" class="st2"/><text x="8.04" y="255.97" class="st5" v:langID="1033"><v:paragraph v:horizAlign="1"/><v:tabList/>Sampler <tspan class="st6" v:langID="2052">0</tspan></text></g><g id="shape188-22" v:mID="188" v:groupContext="shape" v:layerMember="0" transform="translate(53.8944,-219.807)"><title>Dynamic connector.188</title><path d="M0 255.54 L81.73 255.54" class="st7"/></g><g id="shape200-28" v:mID="200" v:groupContext="shape" v:layerMember="0" transform="translate(53.7837,-192.941)"><title>Dynamic connector.200</title><path d="M0 255.54 L82.07 255.54" class="st7"/></g><g id="shape234-33" v:mID="234" v:groupContext="shape" transform="translate(226.397,361.193) scale(1,-1)"><title>Sheet.234</title><desc>SAR ADC core</desc><v:textBlock v:margins="rect(4,4,4,4)" v:tabSpace="42.5197"/><v:textRect cx="36.8269" cy="238.279" width="73.66" height="48.6862"/><path d="M73.65 213.94 L24.55 213.94 L0 238.28 L24.55 262.62 L73.65 262.62 L73.65 213.94 Z" class="st9"/><rect v:rectContext="textBkgnd" x="11.5458" y="232.879" width="50.5621" height="10.7998" class="st10"/><text x="11.55" y="-235.58" transform="scale(1,-1)" class="st5" v:langID="1033"><v:paragraph v:horizAlign="1"/><v:tabList/>SAR ADC core</text></g><g id="shape235-37" v:mID="235" v:groupContext="shape" transform="translate(223.423,-120.888)"><title>Sheet.235</title><path d="M0 262.62 L22.1 262.62" class="st11"/></g><g id="shape236-40" v:mID="236" v:groupContext="shape" transform="translate(486.021,141.734) rotate(90)"><title>Sheet.236</title><path d="M0 262.62 L8.11 262.62" class="st11"/></g><g id="shape237-43" v:mID="237" v:groupContext="shape" transform="translate(219.341,-112.774)"><title>Sheet.237</title><path d="M0 262.62 L8.11 262.62" class="st12"/></g><g id="shape238-46" v:mID="238" v:groupContext="shape" transform="translate(37.6967,-31.7965) rotate(-45)"><title>Sheet.238</title><path d="M0 262.62 L5.74 262.62" class="st12"/></g><g id="shape239-49" v:mID="239" v:groupContext="shape" transform="translate(405.043,-35.8537) rotate(45)"><title>Sheet.239</title><path d="M0 262.62 L5.74 262.62" class="st12"/></g><g id="shape240-52" v:mID="240" v:groupContext="shape" v:layerMember="0" transform="translate(199.917,-149.053)"><title>Dynamic connector.240</title><path d="M0 255.54 L37.51 255.54" class="st13"/></g><g id="group64-58" transform="translate(46.5986,-223.549)" v:mID="64" v:groupContext="group"><title>Chip pin.1270</title><g id="shape65-59" v:mID="65" v:groupContext="shape" transform="translate(0,-1.82028E-07)"><title>Sheet.65</title><rect x="0" y="255.782" width="6.83979" height="6.83979" class="st15"/></g><g id="shape66-61" v:mID="66" v:groupContext="shape" transform="translate(185.702,70.0804) rotate(45)"><title>Sheet.66</title><path d="M0 262.62 L9.67 262.62" class="st16"/></g><g id="shape67-64" v:mID="67" v:groupContext="shape" transform="translate(-185.702,76.9202) rotate(-45)"><title>Sheet.67</title><path d="M0 262.62 L9.67 262.62" class="st16"/></g></g><g id="group68-67" transform="translate(46.6971,-196.739)" v:mID="68" v:groupContext="group"><title>Chip pin.44</title><g id="shape69-68" v:mID="69" v:groupContext="shape" transform="translate(0,-1.82028E-07)"><title>Sheet.69</title><rect x="0" y="255.782" width="6.83979" height="6.83979" class="st15"/></g><g id="shape70-70" v:mID="70" v:groupContext="shape" transform="translate(185.702,70.0804) rotate(45)"><title>Sheet.70</title><path d="M0 262.62 L9.67 262.62" class="st16"/></g><g id="shape71-73" v:mID="71" v:groupContext="shape" transform="translate(-185.702,76.9202) rotate(-45)"><title>Sheet.71</title><path d="M0 262.62 L9.67 262.62" class="st16"/></g></g><g id="shape281-76" v:mID="281" v:groupContext="shape" transform="translate(199.506,-79.6476) scale(-1,1)"><title>Sheet.281</title><rect x="0" y="99.493" width="68.3979" height="163.129" class="st17"/></g><g id="shape322-78" v:mID="322" v:groupContext="shape" transform="translate(323.836,-125.007)"><title>Sheet.322</title><desc>FIFO 0 (Channel 0/2/4)</desc><v:textBlock v:margins="rect(4,4,4,4)" v:tabSpace="42.5197"/><v:textRect cx="40.255" cy="245.297" width="80.51" height="34.6495"/><rect x="0" y="227.973" width="80.51" height="34.6495" class="st18"/><text x="28.5" y="242.6" class="st5" v:langID="1033"><v:paragraph v:horizAlign="1"/><v:tabList/>FIFO 0<v:newlineChar/><tspan x="11.18" class="st6" dy="1.2em">(Channel 0/2/4)</tspan></text></g><g id="shape328-82" v:mID="328" v:groupContext="shape" v:layerMember="0" transform="translate(300.393,-132.582)"><title>Dynamic connector.328</title><path d="M0 255.54 L17.55 255.54" class="st13"/></g><g id="shape366-87" v:mID="366" v:groupContext="shape" transform="translate(424.535,-114.873)"><title>Sheet.366</title><desc>DMA DataWire 0 Channel 0 (ADC_DMA)</desc><v:textBlock v:margins="rect(4,4,4,4)" v:tabSpace="42.5197"/><v:textRect cx="67.372" cy="236.406" width="134.75" height="52.4329"/><rect x="0" y="210.189" width="134.744" height="52.4329" class="st2"/><text x="17.96" y="233.71" class="st5" v:langID="1033"><v:paragraph v:horizAlign="1"/><v:tabList/>DMA DataWire 0 Channel 0<v:newlineChar/><tspan x="46.12" class="st6" dy="1.2em">(ADC_DMA)</tspan></text></g><g id="shape367-91" v:mID="367" v:groupContext="shape" transform="translate(592.794,-117.266)"><title>Sheet.367</title><desc>adc_result_buffer (SARM)</desc><v:textBlock v:margins="rect(4,4,4,4)" v:tabSpace="42.5197"/><v:textRect cx="56.7703" cy="237.261" width="113.55" height="50.723"/><rect x="0" y="211.899" width="113.541" height="50.723" class="st2"/><text x="19.58" y="234.26" class="st19" v:langID="1033"><v:paragraph v:horizAlign="1"/><v:tabList/>adc_result_buffer<v:newlineChar/><tspan x="41.87" class="st6" dy="1.2em">(SARM)</tspan></text></g><g id="shape368-95" v:mID="368" v:groupContext="shape" transform="translate(43.5047,-207.444)"><title>Sheet.368</title><desc>Differential input 0</desc><v:textBlock v:margins="rect(4,4,4,4)" v:tabSpace="42.5197"/><v:textRect cx="43.2707" cy="256.536" width="86.55" height="12.1715"/><rect x="0" y="250.451" width="86.5414" height="12.1715" class="st4"/><text x="4" y="259.24" class="st5" v:langID="1033"><v:paragraph/><v:tabList/>Differential input 0</text></g><g id="shape369-98" v:mID="369" v:groupContext="shape" transform="translate(140.912,-191.25)"><title>Sheet.369</title><desc>Sampler 1</desc><v:textBlock v:margins="rect(4,4,4,4)" v:tabSpace="42.5197"/><v:textRect cx="27.0172" cy="253.271" width="54.04" height="18.7015"/><rect x="0" y="243.921" width="54.0344" height="18.7015" class="st2"/><text x="8.04" y="255.97" class="st5" v:langID="1033"><v:paragraph v:horizAlign="1"/><v:tabList/>Sampler 1</text></g><g id="shape370-101" v:mID="370" v:groupContext="shape" transform="translate(-3.59712E-14,-170.995)"><title>Sheet.370</title><desc>AN_A2(+)</desc><v:textBlock v:margins="rect(4,4,4,4)" v:tabSpace="42.5197"/><v:textRect cx="23.3504" cy="259.202" width="46.71" height="6.83979"/><rect x="0" y="255.782" width="46.7007" height="6.83979" class="st4"/><text x="4" y="261.9" class="st5" v:langID="1033"><v:paragraph/><v:tabList/>AN_A2(+)</text></g><g id="shape371-104" v:mID="371" v:groupContext="shape" transform="translate(0.301545,-144.518)"><title>Sheet.371</title><desc>AN_A3(-)</desc><v:textBlock v:margins="rect(4,4,4,4)" v:tabSpace="42.5197"/><v:textRect cx="23.9203" cy="259.202" width="47.85" height="6.83979"/><rect x="0" y="255.782" width="47.8407" height="6.83979" class="st4"/><text x="4" y="261.9" class="st5" v:langID="1033"><v:paragraph/><v:tabList/>AN_A3(-)</text></g><g id="shape372-107" v:mID="372" v:groupContext="shape" transform="translate(140.798,-164.575)"><title>Sheet.372</title><desc>Sampler 2</desc><v:textBlock v:margins="rect(4,4,4,4)" v:tabSpace="42.5197"/><v:textRect cx="27.0172" cy="253.271" width="54.04" height="18.7015"/><rect x="0" y="243.921" width="54.0344" height="18.7015" class="st2"/><text x="8.04" y="255.97" class="st5" v:langID="1033"><v:paragraph v:horizAlign="1"/><v:tabList/>Sampler 2</text></g><g id="shape373-110" v:mID="373" v:groupContext="shape" v:layerMember="0" transform="translate(54.2364,-167.368)"><title>Dynamic connector.373</title><path d="M0 255.54 L81.73 255.54" class="st7"/></g><g id="shape374-115" v:mID="374" v:groupContext="shape" v:layerMember="0" transform="translate(54.0671,-140.503)"><title>Dynamic connector.374</title><path d="M0 255.54 L82.13 255.54" class="st7"/></g><g id="group375-120" transform="translate(46.9406,-171.111)" v:mID="375" v:groupContext="group"><title>Chip pin.375</title><g id="shape376-121" v:mID="376" v:groupContext="shape" transform="translate(0,-1.82028E-07)"><title>Sheet.376</title><rect x="0" y="255.782" width="6.83979" height="6.83979" class="st15"/></g><g id="shape377-123" v:mID="377" v:groupContext="shape" transform="translate(185.702,70.0804) rotate(45)"><title>Sheet.377</title><path d="M0 262.62 L9.67 262.62" class="st16"/></g><g id="shape378-126" v:mID="378" v:groupContext="shape" transform="translate(-185.702,76.9202) rotate(-45)"><title>Sheet.378</title><path d="M0 262.62 L9.67 262.62" class="st16"/></g></g><g id="group379-129" transform="translate(47.3585,-144.204)" v:mID="379" v:groupContext="group"><title>Chip pin.379</title><g id="shape380-130" v:mID="380" v:groupContext="shape" transform="translate(0,-1.82028E-07)"><title>Sheet.380</title><rect x="0" y="255.782" width="6.83979" height="6.83979" class="st15"/></g><g id="shape381-132" v:mID="381" v:groupContext="shape" transform="translate(185.702,70.0804) rotate(45)"><title>Sheet.381</title><path d="M0 262.62 L9.67 262.62" class="st16"/></g><g id="shape382-135" v:mID="382" v:groupContext="shape" transform="translate(-185.702,76.9202) rotate(-45)"><title>Sheet.382</title><path d="M0 262.62 L9.67 262.62" class="st16"/></g></g><g id="shape383-138" v:mID="383" v:groupContext="shape" transform="translate(42.8327,-154.835)"><title>Sheet.383</title><desc>Differential input 1</desc><v:textBlock v:margins="rect(4,4,4,4)" v:tabSpace="42.5197"/><v:textRect cx="43.2707" cy="256.536" width="86.55" height="12.1715"/><rect x="0" y="250.451" width="86.5414" height="12.1715" class="st4"/><text x="4" y="259.24" class="st5" v:langID="1033"><v:paragraph/><v:tabList/>Differential input 1</text></g><g id="shape384-141" v:mID="384" v:groupContext="shape" transform="translate(141.254,-138.812)"><title>Sheet.384</title><desc>Sampler 3</desc><v:textBlock v:margins="rect(4,4,4,4)" v:tabSpace="42.5197"/><v:textRect cx="27.0172" cy="253.271" width="54.04" height="18.7015"/><rect x="0" y="243.921" width="54.0344" height="18.7015" class="st2"/><text x="8.04" y="255.97" class="st5" v:langID="1033"><v:paragraph v:horizAlign="1"/><v:tabList/>Sampler 3</text></g><g id="shape385-144" v:mID="385" v:groupContext="shape" transform="translate(0.301545,-118.042)"><title>Sheet.385</title><desc>AN_A4(+)</desc><v:textBlock v:margins="rect(4,4,4,4)" v:tabSpace="42.5197"/><v:textRect cx="23.6354" cy="259.202" width="47.28" height="6.83979"/><rect x="0" y="255.782" width="47.2707" height="6.83979" class="st4"/><text x="4" y="261.9" class="st5" v:langID="1033"><v:paragraph/><v:tabList/>AN_A4(+)</text></g><g id="shape386-147" v:mID="386" v:groupContext="shape" transform="translate(0.227993,-92.1092)"><title>Sheet.386</title><desc>AN_A5(-)</desc><v:textBlock v:margins="rect(4,4,4,4)" v:tabSpace="42.5197"/><v:textRect cx="23.5784" cy="259.202" width="47.16" height="6.83979"/><rect x="0" y="255.782" width="47.1567" height="6.83979" class="st4"/><text x="4" y="261.9" class="st5" v:langID="1033"><v:paragraph/><v:tabList/>AN_A5(-)</text></g><g id="shape387-150" v:mID="387" v:groupContext="shape" transform="translate(140.266,-112.213)"><title>Sheet.387</title><desc>Sampler 4</desc><v:textBlock v:margins="rect(4,4,4,4)" v:tabSpace="42.5197"/><v:textRect cx="27.0172" cy="253.271" width="54.04" height="18.7015"/><rect x="0" y="243.921" width="54.0344" height="18.7015" class="st2"/><text x="8.04" y="255.97" class="st5" v:langID="1033"><v:paragraph v:horizAlign="1"/><v:tabList/>Sampler 4</text></g><g id="shape388-153" v:mID="388" v:groupContext="shape" v:layerMember="0" transform="translate(53.7044,-115.006)"><title>Dynamic connector.388</title><path d="M0 255.54 L81.73 255.54" class="st7"/></g><g id="shape389-158" v:mID="389" v:groupContext="shape" v:layerMember="0" transform="translate(53.3514,-88.1405)"><title>Dynamic connector.389</title><path d="M0 255.54 L82.31 255.54" class="st7"/></g><g id="group390-163" transform="translate(46.4086,-118.748)" v:mID="390" v:groupContext="group"><title>Chip pin.390</title><g id="shape391-164" v:mID="391" v:groupContext="shape" transform="translate(0,-1.82028E-07)"><title>Sheet.391</title><rect x="0" y="255.782" width="6.83979" height="6.83979" class="st15"/></g><g id="shape392-166" v:mID="392" v:groupContext="shape" transform="translate(185.702,70.0804) rotate(45)"><title>Sheet.392</title><path d="M0 262.62 L9.67 262.62" class="st16"/></g><g id="shape393-169" v:mID="393" v:groupContext="shape" transform="translate(-185.702,76.9202) rotate(-45)"><title>Sheet.393</title><path d="M0 262.62 L9.67 262.62" class="st16"/></g></g><g id="group394-172" transform="translate(46.4759,-91.8112)" v:mID="394" v:groupContext="group"><title>Chip pin.394</title><g id="shape395-173" v:mID="395" v:groupContext="shape" transform="translate(0,-1.82028E-07)"><title>Sheet.395</title><rect x="0" y="255.782" width="6.83979" height="6.83979" class="st15"/></g><g id="shape396-175" v:mID="396" v:groupContext="shape" transform="translate(185.702,70.0804) rotate(45)"><title>Sheet.396</title><path d="M0 262.62 L9.67 262.62" class="st16"/></g><g id="shape397-178" v:mID="397" v:groupContext="shape" transform="translate(-185.702,76.9202) rotate(-45)"><title>Sheet.397</title><path d="M0 262.62 L9.67 262.62" class="st16"/></g></g><g id="shape398-181" v:mID="398" v:groupContext="shape" transform="translate(41.0288,-101.299)"><title>Sheet.398</title><desc>Differential input 2</desc><v:textBlock v:margins="rect(4,4,4,4)" v:tabSpace="42.5197"/><v:textRect cx="43.2707" cy="256.536" width="86.55" height="12.1715"/><rect x="0" y="250.451" width="86.5414" height="12.1715" class="st4"/><text x="4" y="259.24" class="st5" v:langID="1033"><v:paragraph/><v:tabList/>Differential input 2</text></g><g id="shape399-184" v:mID="399" v:groupContext="shape" transform="translate(140.722,-86.4494)"><title>Sheet.399</title><desc>Sampler 5</desc><v:textBlock v:margins="rect(4,4,4,4)" v:tabSpace="42.5197"/><v:textRect cx="27.0172" cy="253.271" width="54.04" height="18.7015"/><rect x="0" y="243.921" width="54.0344" height="18.7015" class="st2"/><text x="8.04" y="255.97" class="st5" v:langID="1033"><v:paragraph v:horizAlign="1"/><v:tabList/>Sampler 5</text></g><g id="shape404-187" v:mID="404" v:groupContext="shape" transform="translate(209.908,-218.432)"><title>Sheet.404</title><desc>HPPASS SAR ADC</desc><v:textBlock v:margins="rect(4,4,4,4)" v:tabSpace="42.5197"/><v:textRect cx="56.4283" cy="250.237" width="112.86" height="24.7712"/><rect x="0" y="237.851" width="112.857" height="24.7712" class="st20"/><text x="19.01" y="253.24" class="st22" v:langID="1033"><v:paragraph v:horizAlign="1"/><v:tabList/>HPPASS SAR ADC</text></g><g id="shape406-192" v:mID="406" v:groupContext="shape" v:layerMember="0" transform="translate(404.807,-134.461)"><title>Dynamic connector.406</title><path d="M0 255.54 L14.36 255.54" class="st13"/></g><g id="shape407-197" v:mID="407" v:groupContext="shape" v:layerMember="0" transform="translate(559.788,-134.461)"><title>Dynamic connector.407</title><path d="M0 255.54 L27.41 255.54" class="st13"/></g><g id="shape408-202" v:mID="408" v:groupContext="shape" transform="translate(186.522,-17.7787)"><title>Rectangle.12</title><v:userDefs>
					<v:ud v:nameU="visVersion" v:val="VT0(15):26"/>
				</v:userDefs><rect x="0" y="216.417" width="49.9278" height="46.2047" class="st2"/></g><g id="shape410-204" v:mID="410" v:groupContext="shape" transform="translate(188.868,-25.4371)"><title>Sheet.410</title><path d="M0 262.62 L39.57 262.62" class="st23"/></g><g id="shape413-210" v:mID="413" v:groupContext="shape" transform="translate(190.256,-55.3535)"><title>Sheet.413</title><path d="M0 262.62 L38.63 262.62" class="st23"/></g><g id="shape416-215" v:mID="416" v:groupContext="shape" transform="translate(157.646,-2.85951)"><title>Rectangle.15</title><desc>Trigger one-to-one group 2</desc><v:textBlock v:margins="rect(4,4,4,4)" v:tabSpace="42.5197"/><v:textRect cx="57.8905" cy="254.749" width="115.79" height="15.7469"/><rect x="0" y="246.875" width="115.781" height="15.7469" class="st25"/><text x="7.31" y="257.75" class="st5" v:langID="1033"><v:paragraph v:horizAlign="1"/><v:tabList/>Trigger one-to-one group 2</text></g><g id="shape422-218" v:mID="422" v:groupContext="shape" transform="translate(-50.6967,227.174) rotate(-90)"><title>Sheet.422</title><path d="M0 262.62 L15.33 262.62" class="st26"/></g><g id="shape425-221" v:mID="425" v:groupContext="shape" transform="translate(132.656,-42.6287)"><title>Sheet.425</title><path d="M0 262.62 L47.83 262.62" class="st23"/></g><g id="shape432-226" v:mID="432" v:groupContext="shape" v:layerMember="0" transform="translate(236.807,-40.4559)"><title>Dynamic connector</title><path d="M0 262.62 L37.73 262.62 L37.73 233.23" class="st23"/></g><g id="shape433-231" v:mID="433" v:groupContext="shape" transform="translate(233.205,-79.2722)"><title>Rectangle.433</title><desc>HPPASS input trigger 0</desc><v:textBlock v:margins="rect(4,4,4,4)" v:tabSpace="42.5197"/><v:textRect cx="40.0938" cy="254.241" width="80.19" height="16.7615"/><rect x="0" y="245.861" width="80.1876" height="16.7615" class="st25"/><text x="13.88" y="250.94" class="st5" v:langID="1033"><v:paragraph v:horizAlign="1"/><v:tabList/>HPPASS input <tspan x="24.44" class="st6" dy="1.3em">trigger 0</tspan></text></g><g id="shape434-235" v:mID="434" v:groupContext="shape" v:layerMember="0" transform="translate(355.27,-159.538)"><title>Dynamic connector.434</title><path d="M0 262.62 L0 222.47 L63.91 222.47" class="st23"/></g><g id="shape436-240" v:mID="436" v:groupContext="shape" transform="translate(425.093,-173.245)"><title>Rectangle.436</title><v:userDefs>
					<v:ud v:nameU="visVersion" v:val="VT0(15):26"/>
				</v:userDefs><rect x="0" y="212.535" width="40.0488" height="50.087" class="st2"/></g><g id="shape437-242" v:mID="437" v:groupContext="shape" transform="translate(426.975,-188.162)"><title>Sheet.437</title><path d="M0 262.62 L10.29 262.62" class="st23"/></g><g id="shape438-247" v:mID="438" v:groupContext="shape" transform="translate(446.291,-175.655)"><title>Sheet.438</title><path d="M0 226.1 L0 262.62 L7.09 258.06 L7.09 232.38 L0 226.1 Z" class="st2"/></g><g id="shape439-249" v:mID="439" v:groupContext="shape" transform="translate(443.425,-180.956)"><title>Sheet.439</title><path d="M0 226.1 L0 262.62 L7.09 258.06 L7.09 232.38 L0 226.1 Z" class="st2"/></g><g id="shape440-251" v:mID="440" v:groupContext="shape" transform="translate(427.533,-215.098)"><title>Sheet.440</title><path d="M0 262.62 L10.1 262.62" class="st23"/></g><g id="shape441-256" v:mID="441" v:groupContext="shape" transform="translate(310.523,304.652) rotate(-147.653)"><title>Sheet.441</title><path d="M0 262.62 L5.23 262.62" class="st27"/></g><g id="shape442-259" v:mID="442" v:groupContext="shape" transform="translate(169.302,67.1125) rotate(-90)"><title>Sheet.442</title><path d="M0 262.62 L12.3 262.62" class="st26"/></g><g id="shape443-262" v:mID="443" v:groupContext="shape" v:layerMember="0" transform="translate(494.301,-167.539)"><title>Dynamic connector.443</title><path d="M0 256.94 L0 256.58 L0 229.68 L-29.18 229.68" class="st28"/></g><g id="shape444-268" v:mID="444" v:groupContext="shape" transform="translate(459.742,-201.594)"><title>Rectangle.444</title><desc>Trigger multiplexer group 0</desc><v:textBlock v:margins="rect(4,4,4,4)" v:tabSpace="42.5197"/><v:textRect cx="44.7556" cy="248.751" width="89.52" height="27.7432"/><rect x="0" y="234.879" width="89.5113" height="27.7432" class="st25"/><text x="8.81" y="245.45" class="st5" v:langID="1033"><v:paragraph v:horizAlign="1"/><v:tabList/>Trigger multiplexer <tspan x="30.41" class="st6" dy="1.3em">group 0</tspan></text></g><g id="shape445-272" v:mID="445" v:groupContext="shape" transform="translate(322.046,-200.244)"><title>Rectangle.445</title><desc>3 results in FIFO to trigger</desc><v:textBlock v:margins="rect(4,4,4,4)" v:tabSpace="42.5197"/><v:textRect cx="37.9518" cy="248.751" width="75.91" height="27.7432"/><rect x="0" y="234.879" width="75.9037" height="27.7432" class="st25"/><text x="8.15" y="246.05" class="st5" v:langID="1033"><v:paragraph v:horizAlign="1"/><v:tabList/>3 results in FIFO <tspan x="20.57" class="st6" dy="1.2em">to trigger</tspan></text></g><g id="shape450-276" v:mID="450" v:groupContext="shape" transform="translate(47.1695,-16.4111)"><title>Rectangle.450</title><desc>TCPWM 0 Group 0 Counter 2 (USER_TIMER)</desc><v:userDefs>
					<v:ud v:nameU="visVersion" v:val="VT0(15):26"/>
				</v:userDefs><v:textBlock v:margins="rect(4,4,4,4)" v:tabSpace="42.5197"/><v:textRect cx="42.5197" cy="239.52" width="85.04" height="46.2047"/><rect x="0" y="216.417" width="85.0394" height="46.2047" class="st2"/><text x="9.29" y="229.62" class="st5" v:langID="1033"><v:paragraph v:horizAlign="1"/><v:tabList/>TCPWM 0 Group 0 <tspan x="24.15" class="st6" dy="1.2em">Counter 2<v:newlineChar/><v:paragraph v:horizAlign="1"/></tspan><tspan x="15.51" class="st6" dy="1.5em">(USER_TIMER)</tspan></text></g><g id="shape452-281" v:mID="452" v:groupContext="shape" transform="translate(125.878,-39.9834)"><title>Rectangle.16</title><desc>TR_OUT1</desc><v:textBlock v:margins="rect(4,4,4,4)" v:tabSpace="42.5197"/><v:textRect cx="26.1145" cy="255.266" width="52.23" height="14.7122"/><rect x="0" y="247.91" width="52.2289" height="14.7122" class="st25"/><text x="10.33" y="257.67" class="st29" v:langID="1033"><v:paragraph v:horizAlign="1"/><v:tabList/>TR_OUT1</text></g><g id="shape453-284" v:mID="453" v:groupContext="shape" transform="translate(128.524,-30.9125)"><title>Rectangle.453</title><desc>* Overflow event</desc><v:textBlock v:margins="rect(4,4,4,4)" v:tabSpace="42.5197"/><v:textRect cx="26.1145" cy="255.266" width="52.23" height="14.7122"/><rect x="0" y="247.91" width="52.2289" height="14.7122" class="st25"/><text x="5.29" y="257.07" class="st30" v:langID="1033"><v:paragraph v:horizAlign="1"/><v:tabList/>* Overflow event</text></g></g></g></svg>